<?xml version="1.0" encoding="UTF-8"?>
<svg viewBox="0 0 48 48" xmlns="http://www.w3.org/2000/svg" xmlns:xlink="http://www.w3.org/1999/xlink">
 <defs>
  <clipPath id="b">
   <use width="1" height="1" xlink:href="#k"/>
  </clipPath>
  <filter id="aa">
   <feGaussianBlur stdDeviation=".1025"/>
  </filter>
  <filter id="z">
   <feGaussianBlur stdDeviation=".20047"/>
  </filter>
  <filter id="x">
   <feGaussianBlur stdDeviation=".205"/>
  </filter>
  <filter id="t">
   <feGaussianBlur stdDeviation=".10028"/>
  </filter>
  <filter id="s">
   <feGaussianBlur stdDeviation=".13773"/>
  </filter>
  <filter id="o">
   <feGaussianBlur stdDeviation=".9898"/>
  </filter>
  <filter id="c"/>
  <filter id="ab" x="-.18367" y="-.17866" width="1.3673" height="1.3573">
   <feGaussianBlur stdDeviation=".81887"/>
  </filter>
  <filter id="y" x="-.24566" y="-.13648" width="1.4913" height="1.273">
   <feGaussianBlur stdDeviation="1.02358"/>
  </filter>
  <filter id="w" x="-.02331" y="-.13208" width="1.0466" height="1.2642">
   <feGaussianBlur stdDeviation=".16509"/>
  </filter>
  <filter id="u" x="-.07885" y="-.29605" width="1.1577" height="1.5921">
   <feGaussianBlur stdDeviation=".10293"/>
  </filter>
  <filter id="v" x="-.09234" y="-.22062" width="1.1847" height="1.4412"/>
  <filter id="r" x="-.17708" y="-.02776" width="1.3542" height="1.0555"/>
  <filter id="q" x="-.20098" y="-.186" width="1.402" height="1.372"/>
  <filter id="p" x="-.13725" y="-.12714" width="1.2745" height="1.2543"/>
  <linearGradient id="a">
   <stop stop-color="#e8e8e8" offset="0"/>
   <stop stop-color="#e8e8e8" stop-opacity="0" offset="1"/>
  </linearGradient>
  <mask id="l" maskUnits="userSpaceOnUse">
   <path d="m20,22c1,0 3,1 4,1s3-1 4-1 1,0 1,1v12c0,2-2,5-5,5s-5-3-5-5v-12c0-1 .96883-.97102 1-1z" fill="#fff" filter="url(#y)" opacity=".48558"/>
  </mask>
  <pattern id="ac" width="2" height="1" patternTransform="matrix(1.0781 0 0 1.0781 23.47 32.018)" patternUnits="userSpaceOnUse">
   <path d="m0-.5h1v2h-1z" fill="#fff"/>
  </pattern>
  <radialGradient id="j" cx="45" cy="9.3125" r="8.5" gradientTransform="matrix(1 0 0 1.6471 -22 -2.3382)" gradientUnits="userSpaceOnUse">
   <stop stop-color="#fff" offset="0"/>
   <stop stop-color="#d4d4d4" stop-opacity="0" offset="1"/>
  </radialGradient>
  <radialGradient id="i" cx="24" cy="13.333" r="8.5" gradientTransform="matrix(1 0 0 .35294 0 13.294)" gradientUnits="userSpaceOnUse" xlink:href="#a"/>
  <radialGradient id="h" cx="18.056" cy="6.8248" r="1.0387" gradientTransform="matrix(.30734 -.05334 .085234 .49111 12.172 4.5285)" gradientUnits="userSpaceOnUse" xlink:href="#a"/>
  <radialGradient id="g" cx="17.591" cy="5.9972" r=".6875" gradientTransform="matrix(.33203 -.12731 .15346 .40021 10.656 6.1425)" gradientUnits="userSpaceOnUse" xlink:href="#a"/>
  <radialGradient id="f" cx="14.224" cy="3.5441" r="1.5486" gradientTransform="matrix(.23504 .31977 -.20313 .14931 12.566 -1.9816)" gradientUnits="userSpaceOnUse" xlink:href="#a"/>
  <radialGradient id="e" cx="14.874" cy="17.323" r="1.75" gradientTransform="matrix(.57132 .28929 -.12721 .25122 8.8016 8.7461)" gradientUnits="userSpaceOnUse" xlink:href="#a"/>
  <radialGradient id="d" cx="13.645" cy="16.399" r=".5" gradientTransform="matrix(.293 .293 -.51562 .51563 18.325 3.9016)" gradientUnits="userSpaceOnUse" xlink:href="#a"/>
 </defs>
 <path d="m15.8125,4.96875c-.32813.10938-.28125.625.15625,1.5 .41933.83866 1.69142,1.85648 2.15625,2.21875 .02443.24431.12119.55869.34375.78125 .175.175.34644.26981.5.34375 .07077.24839.20069.50659.5.65625 .35.175.61625.26981.84375.34375-.04384.22672-.0625.44687-.0625.65625 0,2-2,4-2,8 0,.83853.00977,1.47567.0625,1.9375l-.0625.0625v2c-.75.75-1,2-1,3 0,.14334.0273.34287.0625.5625-.01108.07248.0076.1461 0,.21875-.49881-.38741-1.4595-1.11133-2.21875-1.40625-.86339-.33537-2.28951-.36543-2.375.25-.18807-.02736-.72509-.07888-1.875.15625-1.38544.28329-1.9375.28125-1.9375.28125s-.04479.39367-.4375.5625c-.31908.13717-1.13907.16279-1.34375.34375-.08224-.04317-.38416-.15459-.625-.03125-.27525.14096-.21875.59375-.21875.59375s.32617-.27565.46875-.3125c.08736-.02258.206-.07047.34375-.09375 .18403.31648 1.6964.00357 2.96875-.4375 1.1095-.38462 2.3932-.62619 2.75-.6875 .38328.85488 1.10164,1.0118 2.28125,1.125 1.01422.09733 1.8499.43404 2.15625.5625 .04558.88936.78671,3.13179.9375,5.53125-1.23397.89657-2.22023,1.84246-2.3125,2.53125-.01443.10773-.0059.21572 0,.28125-.23641.18278-.51517.4329-.65625.78125-.31174.76973-.5306,1.60104-.96875,2.375-.32861.58047-.72258.99443-.84375,1.25-.26537-.07167-.82914.20627-1.0625.46875-.08187-.02503-.40497-.11711-.6875.0625-.32219.20482-.375.84375-.375.84375l.5625-.3125c0,0-.0236-.21473.125-.3125 .0743-.04888.19715-.07407.3125-.09375-.00331.02967-.04755.06993-.03125.09375 .14747.21548.99331-.15308 1.21875-.46875 .15917.03811.39323-.12176.5625-.09375 .21209.03509.50261.16793.65625-.03125s.4816-2.02724.78125-2.90625c.23621-.6929.79058-1.37244 1.0625-1.6875 .36278-.17794.94802-.46668 1.71875-.8125-.00031.02361.00049.03807 0,.0625 .00073.29517-.01172.55859 0,.875 .01695,3.32731.68296,8.2814 6.90625,8.8125 .35052.03202.70721.0625 1.09375.0625s.77448-.03049 1.125-.0625c6.44077-.55457 6.92972-5.87467 6.90625-9.1875 .22493.23842.38783.44286.53125.59375 .10784.31566.35223,1.0014.28125,1.59375-.08921.74451-.52228,2.14623-.46875,2.34375s.33499.20442.53125.25c.16607.03857.30366.27783.46875.28125 .09009.31043.63659.8246.84375.71875 .01287-.00658.02291.01003.03125,0 .08082.04927.18007.07229.21875.125 .08921.12155-.03125.28125-.03125.28125l.34375.40625c0,0 .19627-.46045 0-.71875-.15875-.20892-.4228-.26601-.53125-.28125-.0789-.25966-.45572-.65465-.71875-.71875-.01305-.23246-.19792-.66638-.25-1.1875-.07137-.71412.08931-1.39396.125-2.0625 .01713-.32082-.10931-.62593-.25-.84375 .02505-.04321.03775-.08741.0625-.15625 .20995-.58403-.38094-1.73285-1.1875-2.90625 .11091-2.5649.96875-5.01753.96875-5.875 0-.17907-.0028-.5293-.0625-.90625 .02567-.14826.02177-.25023.03125-.375 .16015-.1325.29195-.30652.40625-.53125 .35816.07986 1.63229.37512 2.71875.8125 1.18914.47872 2.59996.82314 2.90625.59375 .13489.02932.27829.06363.375.09375 .1406.0438.4375.34375.4375.34375s.08051-.47072-.1875-.625c-.21775-.12535-.48186-.01763-.59375.03125-.15983-.20359-.99093-.28016-1.3125-.4375-.38397-.18787-.4375-.5625-.4375-.5625s-.56761-.0554-1.9375-.40625c-1.14157-.29238-1.6888-.26809-1.875-.25-.02283-.25588-.27486-.40273-.625-.46875-.14526-.67874-.39912-1.46162-.84375-1.90625v-1.46875c.38389-.39622.67288-.74407.8125-1.03125 .044.04996.09987.12236.15625.15625 .31323.18826.69221.04538.84375-.34375 .06686-.17168.06582-.35953.03125-.53125 .31309-.181.75504-.55409 1.25-1.3125 .11549-.17696.18446-.38269.25-.5625 .45877-1.25864-.21917-2.43717-.65625-2.125-.49952.35677.08655,1.54127-.09375,2.34375-.11202.49858-.54325.95748-.875,1.3125-.05398-.07649-.14044-.14043-.21875-.1875-.23492-.1412-.5028-.07619-.6875.125-.06157.06706-.11836.15272-.15625.25-.11656-.07006-.36966-.03814-.6875.0625 .0113-.47287.03125-1.02245.03125-1.6875 0-2.625-1.52344-4.48633-1.90625-6.25-.05469-.25195-.09375-.5-.09375-.75 0-.35278-.0943-.73195-.21875-1.125 .07731-.16115.14169-.3231.15625-.46875 .46483-.36227 1.73692-1.38009 2.15625-2.21875 .50001-1 .5-1.5 0-1.5s-1,.5-1,1.5c1e-005,.75-.53906,1.48438-1.03125,1.8125-.05332.03555-.10538.06864-.15625.09375-.00868-.00854-.02083-.02604-.03125-.03125-.0625-.03125-.15625,0-.28125.125l-.03125.03125c-.79137-1.63749-2.64898-3.21875-5.5625-3.21875-3.35,0-5.26813,2.11002-5.8125,3.96875-.04193-.01075-.08796-.00977-.125-.03125-.3418-.19824-.40625-1-.84375-1.4375-.16827-.16827-.32641-.10792-.4375.0625l-.5625-.5625c-.125-.125-.21875-.15625-.28125-.125-.44034-.22356-.99766-.81094-1.15625-1.5-.02832-.12305-.0625-.25-.0625-.375 0-1-.5-1.5-1-1.5-.0625,0-.10938-.01563-.15625,0zm-4.65625,11c-.05095.02136-.03461.08184.03125.1875 .30105.483 1.04864.75496 1.625,1.28125 .37259.34022.71387.89594 1,1.28125-.0377-.00313-.07309-.04988-.09375-.03125-.09722.08765.05742.39423.34375.6875-.17613.15878 1.6875,3.46875 1.6875,3.46875l1.40625.75c0,0-.70119-1.40364-1.5625-2.625-.38649-.54805-.68897-.91734-.9375-1.1875 .03695.0028.07339-.01289.09375-.03125 .09722-.08765-.05742-.39423-.34375-.6875-.07158-.07332-.14778-.13198-.21875-.1875s-.12462-.09129-.1875-.125c-.16348-.2827-.4089-.70817-.96875-1.375-.13519-.16102-.27442-.30465-.40625-.4375-.69209-.69746-1.31591-1.03285-1.46875-.96875z" filter="url(#o)" opacity=".65385"/>
 <path d="m15.8125,4.96875c-.32813.10938-.28125.625.15625,1.5 .41933.83866 1.69142,1.85648 2.15625,2.21875 .02443.24431.12119.55869.34375.78125 .175.175.34644.26981.5.34375 .07077.24839.20069.50659.5.65625 .35.175.61625.26981.84375.34375-.04384.22672-.0625.44687-.0625.65625 0,2-2,4-2,8 0,.83853.00977,1.47567.0625,1.9375l-.0625.0625v2c-.75.75-1,2-1,3 0,.14334.0273.34287.0625.5625-.01108.07248.0076.1461 0,.21875-.49881-.38741-1.4595-1.11133-2.21875-1.40625-.86339-.33537-2.28951-.36543-2.375.25-.18807-.02736-.72509-.07888-1.875.15625-1.38544.28329-1.9375.28125-1.9375.28125s-.04479.39367-.4375.5625c-.31908.13717-1.13907.16279-1.34375.34375-.08224-.04317-.38416-.15459-.625-.03125-.27525.14096-.21875.59375-.21875.59375s.32617-.27565.46875-.3125c.08736-.02258.206-.07047.34375-.09375 .18403.31648 1.6964.00357 2.96875-.4375 1.1095-.38462 2.3932-.62619 2.75-.6875 .38328.85488 1.10164,1.0118 2.28125,1.125 1.01422.09733 1.8499.43404 2.15625.5625 .04558.88936.78671,3.13179.9375,5.53125-1.23397.89657-2.22023,1.84246-2.3125,2.53125-.01443.10773-.0059.21572 0,.28125-.23641.18278-.51517.4329-.65625.78125-.31174.76973-.5306,1.60104-.96875,2.375-.32861.58047-.72258.99443-.84375,1.25-.26537-.07167-.82914.20627-1.0625.46875-.08187-.02503-.40497-.11711-.6875.0625-.32219.20482-.375.84375-.375.84375l.5625-.3125c0,0-.0236-.21473.125-.3125 .0743-.04888.19715-.07407.3125-.09375-.00331.02967-.04755.06993-.03125.09375 .14747.21548.99331-.15308 1.21875-.46875 .15917.03811.39323-.12176.5625-.09375 .21209.03509.50261.16793.65625-.03125s.4816-2.02724.78125-2.90625c.23621-.6929.79058-1.37244 1.0625-1.6875 .36278-.17794.94802-.46668 1.71875-.8125-.00031.02361.00049.03807 0,.0625 .00073.29517-.01172.55859 0,.875 .01695,3.32731.68296,8.2814 6.90625,8.8125 .35052.03202.70721.0625 1.09375.0625s.77448-.03049 1.125-.0625c6.44077-.55457 6.92972-5.87467 6.90625-9.1875 .22493.23842.38783.44286.53125.59375 .10784.31566.35223,1.0014.28125,1.59375-.08921.74451-.52228,2.14623-.46875,2.34375s.33499.20442.53125.25c.16607.03857.30366.27783.46875.28125 .09009.31043.63659.8246.84375.71875 .01287-.00658.02291.01003.03125,0 .08082.04927.18007.07229.21875.125 .08921.12155-.03125.28125-.03125.28125l.34375.40625c0,0 .19627-.46045 0-.71875-.15875-.20892-.4228-.26601-.53125-.28125-.0789-.25966-.45572-.65465-.71875-.71875-.01305-.23246-.19792-.66638-.25-1.1875-.07137-.71412.08931-1.39396.125-2.0625 .01713-.32082-.10931-.62593-.25-.84375 .02505-.04321.03775-.08741.0625-.15625 .20995-.58403-.38094-1.73285-1.1875-2.90625 .11091-2.5649.96875-5.01753.96875-5.875 0-.17907-.0028-.5293-.0625-.90625 .02567-.14826.02177-.25023.03125-.375 .16015-.1325.29195-.30652.40625-.53125 .35816.07986 1.63229.37512 2.71875.8125 1.18914.47872 2.59996.82314 2.90625.59375 .13489.02932.27829.06363.375.09375 .1406.0438.4375.34375.4375.34375s.08051-.47072-.1875-.625c-.21775-.12535-.48186-.01763-.59375.03125-.15983-.20359-.99093-.28016-1.3125-.4375-.38397-.18787-.4375-.5625-.4375-.5625s-.56761-.0554-1.9375-.40625c-1.14157-.29238-1.6888-.26809-1.875-.25-.02283-.25588-.27486-.40273-.625-.46875-.14526-.67874-.39912-1.46162-.84375-1.90625v-1.46875c.38389-.39622.67288-.74407.8125-1.03125 .044.04996.09987.12236.15625.15625 .31323.18826.69221.04538.84375-.34375 .06686-.17168.06582-.35953.03125-.53125 .31309-.181.75504-.55409 1.25-1.3125 .11549-.17696.18446-.38269.25-.5625 .45877-1.25864-.21917-2.43717-.65625-2.125-.49952.35677.08655,1.54127-.09375,2.34375-.11202.49858-.54325.95748-.875,1.3125-.05398-.07649-.14044-.14043-.21875-.1875-.23492-.1412-.5028-.07619-.6875.125-.06157.06706-.11836.15272-.15625.25-.11656-.07006-.36966-.03814-.6875.0625 .0113-.47287.03125-1.02245.03125-1.6875 0-2.625-1.52344-4.48633-1.90625-6.25-.05469-.25195-.09375-.5-.09375-.75 0-.35278-.0943-.73195-.21875-1.125 .07731-.16115.14169-.3231.15625-.46875 .46483-.36227 1.73692-1.38009 2.15625-2.21875 .50001-1 .5-1.5 0-1.5s-1,.5-1,1.5c1e-005,.75-.53906,1.48438-1.03125,1.8125-.05332.03555-.10538.06864-.15625.09375-.00868-.00854-.02083-.02604-.03125-.03125-.0625-.03125-.15625,0-.28125.125l-.03125.03125c-.79137-1.63749-2.64898-3.21875-5.5625-3.21875-3.35,0-5.26813,2.11002-5.8125,3.96875-.04193-.01075-.08796-.00977-.125-.03125-.3418-.19824-.40625-1-.84375-1.4375-.16827-.16827-.32641-.10792-.4375.0625l-.5625-.5625c-.125-.125-.21875-.15625-.28125-.125-.44034-.22356-.99766-.81094-1.15625-1.5-.02832-.12305-.0625-.25-.0625-.375 0-1-.5-1.5-1-1.5-.0625,0-.10938-.01563-.15625,0zm-4.65625,11c-.05095.02136-.03461.08184.03125.1875 .30105.483 1.04864.75496 1.625,1.28125 .37259.34022.71387.89594 1,1.28125-.0377-.00313-.07309-.04988-.09375-.03125-.09722.08765.05742.39423.34375.6875-.17613.15878 1.6875,3.46875 1.6875,3.46875l1.40625.75c0,0-.70119-1.40364-1.5625-2.625-.38649-.54805-.68897-.91734-.9375-1.1875 .03695.0028.07339-.01289.09375-.03125 .09722-.08765-.05742-.39423-.34375-.6875-.07158-.07332-.14778-.13198-.21875-.1875s-.12462-.09129-.1875-.125c-.16348-.2827-.4089-.70817-.96875-1.375-.13519-.16102-.27442-.30465-.40625-.4375-.69209-.69746-1.31591-1.03285-1.46875-.96875z" opacity=".19712"/>
 <use transform="matrix(-1 0 0 1 48.266 .053851)" width="48" height="48" xlink:href="#m"/>
 <g id="n">
  <path d="m20,8.5c0,0-.5,0-1.5-.5s-.5-2 0-1.5 .5,1.5 1,1.5h.5v.5z" fill="#421615"/>
  <path d="m18.5 7.5s-0.5 0-1-0.5-0.5-1.5 0-1l1 1v0.5z" fill="#421615"/>
  <path d="m20,8.5c0,0-.5,0-1.5-.5s-.5-2 0-1.5 .5,1.5 1,1.5h.5v.5z" fill="url(#h)"/>
  <path d="m17.5 6.5s-2-1.5-2.5-2.5-0.5-1.5 0-1.5 1 0.5 1 1.5 1 2 1.5 2v0.5z" fill="#421615"/>
  <path d="m18.5 7.5s-0.5 0-1-0.5-0.5-1.5 0-1l1 1v0.5z" fill="url(#g)"/>
  <path d="m17.5 6.5s-2-1.5-2.5-2.5-0.5-1.5 0-1.5 1 0.5 1 1.5 1 2 1.5 2v0.5z" fill="url(#f)"/>
 </g>
 <use transform="matrix(-1,0,0,1,48,0)" width="48" height="48" xlink:href="#n"/>
 <path id="k" d="m24,5c4,0 6,3 6,5s2,4 2,7 0,4-1,4h-14c-1,0-1-.76393-1-3 0-4 2-6 2-8s2-5 6-5z" fill="#36332c"/>
 <path d="m20,18c-1,0-2-1-1-2s2-4 2-5 1-4 3-4 3,3 3,4 1,4 2,5c.70711.70711 0,2-1,2h-8z" fill="#c6d3dc" filter="url(#ab)"/>
 <path d="m17 10s2-2 4-2c1 0 3 1 3 1s2-1 3-1c2 0 4 2 4 2v-6h-14v6z" clip-path="url(#b)" fill="#3d3c35" filter="url(#aa)" opacity=".66827" stroke="#d4d4d4" stroke-linecap="round" stroke-linejoin="round"/>
 <g id="m">
  <path d="m17.5 18.5s-1-1-2-1.5-1.5-0.5-1.5 0 2.5 2.5 2.5 2.5l1-1z" fill="#36332c"/>
  <path d="m14.5,16.5a.5,.5 0 1,1 -1,0 .5,.5 0 1,1 1,0z" fill="#36332c"/>
  <path d="m17.5 18.5s-1-1-2-1.5-1.5-0.5-1.5 0 2.5 2.5 2.5 2.5l1-1z" fill="url(#e)"/>
  <path d="m13.9458,16.40954c-.17164.16306-.96119-.47201-1.48469-.37761s-1.0041.84104-1.38171.58358 .29179-1.2873 1.42462-1.02126 1.4332.78097 1.44178.81529z" fill="#36332c"/>
  <path d="m14.5,16.5a.5,.5 0 1,1 -1,0 .5,.5 0 1,1 1,0z" fill="url(#d)"/>
  <path d="m12.18648,15.68865c-.48251-.04196-1.0985.41194-.98693.54925s.39477-.20597.63507-.32612 .74664-.18881.74664-.18881l-.39477-.03433z" fill="#fff" filter="url(#v)"/>
  <path d="m16.762 27.957c-1.5649 1.6404-4.2362 5.7305-3.8086 7.1271 0.28282 0.92388 0.50908-0.05656 2.3003-1.9798s2.7339-2.3191 2.7339-2.3191l-1.2256-2.8282z" fill="#36332c"/>
  <path d="m16.422 28.9s-1.2256 1.3198-1.9798 2.6585-1.301 2.8471-1.301 2.8471 1.6592-2.7905 2.2249-3.3561 1.4518-1.169 1.4518-1.169l-0.39595-0.98045z" fill="#fff" filter="url(#s)"/>
  <path d="m13.38685,34.78284c0,0-.64106.67877-.60335,1.50838s.18855,1.69693.11313,2.5831-.4148,1.54609-.18855,1.67807 .3771-.24511.5845-.30168 .52793-.07542.5845-.32053-.39595-1.9986-.49022-2.92248 .35824-2.31913.35824-2.31913l-.35824.09427z" fill="#36332c"/>
  <path d="m13.06632,35.66901c0,0-.18855.39595-.13198.98045s.22626,2.26257.13198,2.63966-.39595.94274-.35824.9993 .7919-.4148.71648-.90503-.4148-2.11173-.39595-2.45111 .03771-1.28212.03771-1.26327z" fill="#fff" filter="url(#r)"/>
  <path d="m12.765 40.345c0.35824 0.17912-0.56564 1.3198-0.84846 1.1501s0.50522-1.3218 0.84846-1.1501z" fill="#36332c"/>
  <path transform="matrix(.73829 .67448 -.67448 .73829 31.107 2.1196)" d="m12.38755,41.22172a.12256,.44309 0 1,1 -.24511,0 .12256,.44309 0 1,1 .24511,0z" fill="#fff" filter="url(#q)"/>
  <path d="m11.95389,41.2123c0,0-.43366.03771-.64106.35824s0,.92388 0,.92388l.35824-.50908c0,0-.11313-.18855-.01885-.33939s.43366-.33939.43366-.33939l-.13198-.09427z" fill="#36332c"/>
  <path d="m11.84077,41.34428c0,0-.24182.02775-.33424.12017s-.21125.46871-.21125.46871 .18484-.33668.29047-.4093 .25086-.17164.25502-.17958z" fill="#fff" filter="url(#p)"/>
  <path d="m16.517 23.017s-2.0929-0.52793-3.1487-0.45251-2.5831 0.7919-1.8478 1.4707 1.4518 0.52793 2.602 0.11313 2.4511-0.45251 2.4511-0.45251l-0.05656-0.67877z" fill="#36332c"/>
  <path d="m14.68783,22.92322c-.24718-.17313-1.18785-.2074-1.7912,0s-1.24441.52793-1.2067.65992 .86732-.18855 1.39525-.26397 1.67807-.18855 1.67807-.18855 .17176-.03427-.07542-.2074z" fill="#fff" filter="url(#u)"/>
  <path d="m11.501 23.715s-0.65991 0.15084-1.7912 0.9993-1.6215 1.1124-1.6215 1.1124 0.11313 0.35824-0.16969 0.67877-1.3387 0.84846-1.037 1.0559 1.5461-0.73533 2.5077-1.6781 2.4134-1.942 2.4134-1.942l-0.30167-0.22626z" fill="#36332c"/>
  <path d="m11.42596,23.88481c0,0-1.01816.47137-1.64036.96159s-1.52723,1.07472-1.52723,1.07472 .5845-.24511.75419-.33939 .28282-.13198.28282-.13198l-.92388.86732c-.35824.33939-1.28212.96159-1.28212.96159s1.5838-.98045 2.11173-1.52723 .92388-1.03701 1.26327-1.22556 .94274-.65992.96159-.64106z" fill="#fff" filter="url(#t)"/>
  <path d="m6.93854,27.41064c0,0-.47137-.03771-.65992.2074s.05656.64106.05656.64106 .16969-.37709.28282-.47137 .47137-.33939.47137-.33939l-.15084-.03771z" fill="#36332c"/>
 </g>
 <path d="m24,5c4,0 6,3 6,5s2,4 2,7 0,4-1,4h-14c-1,0-1-.76393-1-3 0-4 2-6 2-8s2-5 6-5z" clip-path="url(#b)" fill="none" filter="url(#z)" stroke="url(#j)" stroke-linecap="round" stroke-linejoin="round"/>
 <path d="m16 20s2-2 4-2 3 2 4 2 2-2 4-2 4 2 4 2v2h-16v-2z" clip-path="url(#b)" fill="#36332c" filter="url(#c)"/>
 <path d="m24,20.25c-3,0-6,.25-6,.75v.09375c.34302-.05809.68331-.09375 1-.09375 1,0 3.3125,1 5,1s4-1 5-1c.31669,0 .65698.03566 1,.09375v-.09375c0-.5-3-.75-6-.75z" fill="#36332c" filter="url(#c)" stroke="#2a2822"/>
 <path d="m16,22c-.75.75-1,2-1,3s1,4 1,7-1,12 8,12 8-9 8-12 1-6 1-7c0-.5-.25-2.25-1-3s-2-1-3-1-3.3125,1-5,1-4-1-5-1-2.25.25-3,1z" fill="#36332c"/>
 <path transform="matrix(1 0 0 .91636 0 3.6803)" d="m16,22c-1,1-1,2-1,3s1,4 1,7-1,12 8,12 8-9 8-12 1-6 1-7c0-.5 0-2-1-3s-5-1-8-1-7,0-8,1z" fill="url(#ac)" filter="url(#x)" mask="url(#l)"/>
 <path d="m16 20s2-2 4-2 3 2 4 2 2-2 4-2 4 2 4 2" fill="none" filter="url(#w)" stroke="url(#i)"/>
</svg>
